<?xml version="1.0" encoding="utf-8"?>
<!-- Generator: Adobe Illustrator 24.2.3, SVG Export Plug-In . SVG Version: 6.00 Build 0)  -->
<svg version="1.1" id="Layer_1" xmlns="http://www.w3.org/2000/svg" xmlns:xlink="http://www.w3.org/1999/xlink" x="0px" y="0px"
	 viewBox="0 0 573.2 412.1" style="enable-background:new 0 0 573.2 412.1;" xml:space="preserve">
<style type="text/css">
	.st0{fill:#EBEBEB;}
	.st1{fill:#E0E0E0;}
	.st2{fill:#263238;}
	.st3{fill:#FFBE9D;}
	.st4{fill:#F7671E;}
	.st5{opacity:0.4;}
	.st6{opacity:0.2;}
	.st7{fill:#455A64;}
	.st8{fill:#FAFAFA;}
	.st9{opacity:0.3;}
	.st10{fill:#EB996E;}
	.st11{opacity:0.5;}
	.st12{fill:none;stroke:#F7671E;stroke-width:5;stroke-linecap:round;stroke-linejoin:round;stroke-miterlimit:10;}
</style>
<g>
	<g id="freepik--background-complete--inject-2">
		
			<rect x="89.4" y="187.3" transform="matrix(0.328 -0.9447 0.9447 0.328 -156.9812 316.9845)" class="st0" width="109.9" height="163"/>
		<path class="st1" d="M239.3,243.7c-0.6,0.4-1.2,0.7-1.9,0.9l-5.6,2.3l-20.7,8.1l-68.6,26.3l-0.6,0.2l-0.3-0.5l-0.8-1.2l-39.5-63.1
			l-11.8-19.2l-3.1-5.3c-0.4-0.6-0.7-1.2-1-1.9c0.5,0.5,0.9,1.1,1.2,1.7l3.4,5.1l12.2,19l39.9,62.8c0.3,0.4,0.5,0.9,0.8,1.2
			l-0.9-0.3l68.7-25.8l20.9-7.7l5.7-2C237.9,244.1,238.6,243.9,239.3,243.7z"/>
		<path class="st1" d="M49.3,294.1c-0.2-0.4,16.3-10.5,36.9-22.8s37.4-21.9,37.6-21.5s-16.3,10.5-36.9,22.8S49.5,294.4,49.3,294.1z"
			/>
		<path class="st1" d="M175.5,266.2c0.4-0.1,6.9,18,14.6,40.4s13.6,40.8,13.2,40.9s-6.9-18-14.6-40.4S175.1,266.3,175.5,266.2z"/>
		
			<rect x="395" y="175.5" transform="matrix(0.9859 -0.1671 0.1671 0.9859 -31.39 82.1138)" class="st1" width="154.5" height="104.2"/>
		<path class="st0" d="M539.7,163.3c-0.3,0.6-0.7,1.1-1.2,1.6l-3.6,4.4l-13.5,16.2c-11.6,13.7-27.5,32.4-45,53.1L476,239l-0.5-0.3
			l-1.2-0.7l-61.6-34.4L394.1,193l-5-2.9c-0.6-0.3-1.2-0.7-1.7-1.1c0.6,0.2,1.3,0.5,1.8,0.9l5.1,2.7l18.8,10.2l61.8,34l1.2,0.7
			l-0.9,0.2l45.3-52.8l13.8-15.9c1.6-1.8,2.8-3.2,3.8-4.3C538.8,164.2,539.2,163.8,539.7,163.3z"/>
		<path class="st0" d="M404.7,291.8c-0.3-0.2,8.7-16.2,20.3-35.8c11.6-19.6,21.1-35.3,21.5-35.1s-8.7,16.2-20.3,35.8
			S405.1,292,404.7,291.8z"/>
		<path class="st0" d="M496.9,211.1c0.3-0.3,14,11.8,30.6,26.9s29.9,27.7,29.6,28s-13.9-11.8-30.6-26.9S496.6,211.4,496.9,211.1z"/>
		
			<rect x="388" y="-0.4" transform="matrix(0.366 -0.9306 0.9306 0.366 218.3466 431.0321)" class="st0" width="75" height="111.3"/>
		<path class="st1" d="M490.9,41.7c-0.4,0.2-0.9,0.4-1.3,0.6l-3.9,1.4l-14.3,4.9l-47.5,16l-0.4,0.1l-0.2-0.4l-0.5-0.9l-25.2-44
			c-3.1-5.6-5.7-10.2-7.5-13.4l-2-3.7c-0.3-0.4-0.5-0.9-0.6-1.3c0.3,0.4,0.6,0.8,0.8,1.2c0.5,0.9,1.3,2.1,2.2,3.6l7.8,13.3
			c6.6,11.3,15.5,26.8,25.5,44l0.5,0.9l-0.6-0.2l47.6-15.7l14.4-4.7l3.9-1.2C490,41.9,490.4,41.8,490.9,41.7z"/>
		<path class="st1" d="M359.9,70.8c-0.1-0.2,11.4-6.8,25.8-14.5s26.1-13.9,26.3-13.6s-11.4,6.7-25.8,14.4S360.1,71,359.9,70.8z"/>
		<path class="st1" d="M446.8,55.3c0.3-0.1,4.2,12.4,8.8,28s8.2,28.2,7.9,28.3s-4.2-12.4-8.8-28S446.5,55.3,446.8,55.3z"/>
	</g>
	<g id="freepik--Floor--inject-2">
		<path class="st2" d="M573.2,410.2c0,0.1-128.3,0.3-286.6,0.3S0,410.4,0,410.2s128.3-0.3,286.6-0.3S573.2,410,573.2,410.2z"/>
	</g>
	<g id="freepik--Character--inject-2">
		<path class="st3" d="M28.3,137.6l14.3-5.1l-6.2-8.2c-0.3-1.8-0.5-3.7-0.4-5.5c0-0.9,0.2-1.9,0.5-2.8c0.3-1.1,0.8-2.2,1.5-3.2
			c0.4-0.4,0.4-1.1,0-1.5c-0.3-0.2-0.6-0.3-1-0.3c-1,0.3-2.9,2.5-3.7,5.9s-3.2-1.6-4-3.4s-3.8-7.2-4.6-7.4c-1.1-0.3-1.6,0.9-0.7,2.7
			s3.3,7.3,2.3,7.7s-5.3-8.8-5.3-8.8s-0.6-2.1-1.7-1.7c-2.1,0.8,3.3,10.3,3.8,11.1c0.4,0.6-0.7,1.1-1,0.4s-4.1-9.3-6.2-8.5
			c-1.6,0.6,4.3,7.8,4.1,10s-3.9-5.9-5.4-5.3c-0.6,0.2-1,0.5,1.9,4.9c1.4,2,2.9,4,4.5,5.9l0,0L28.3,137.6"/>
		<path class="st4" d="M157,155c0,0-7.1-16.5-11.9-24.5c-4.6-7.5-10.7-8.8-13.9-9c-1.3-0.4-2.7-0.7-4.1-0.9l-26.5-0.2
			c-5.8,0.1-11.4,2.1-15.8,5.8c-1.2,1-10.4,11.6-22.5,26.7l-21.3-23l-12.7,7.5c0,0,13.8,47.5,31,44.3c10.3-1.9,18.3-9,18.3-9
			L91,161.9l0.3,1.8c0.3,2.2,0.9,5.7,1.5,7.9c1.6,6.8,2.5,15.7-1,21.6c0,0-4.8,3.7-1,7.7h49.8c0,0,7.1-4.8,0.6-10.1l-4-10.1
			l2.6-12.3l1-4.9l4.4,7.5c0,0,8.7,10.9,17.7,9.6c10.9-1.6,17.1-21.4,7.4-47.5l-11.8,3.6L157,155z"/>
		<g class="st5">
			<polygon points="28.3,137.6 29.5,141.5 43.6,132.9 41,130.1 			"/>
		</g>
		<g class="st6">
			<path d="M91.8,193.2c4.2-0.6,8-3,10.5-6.5c2.6-3.5,3.7-7.9,3-12.2c-0.1-1.5-0.9-3-2.1-3.9c-1.6-1-3.7-0.5-5.4-1.4
				c-1.3-0.7-2.1-2.2-3-3.4s-2.2-3.1-3.6-2.5c0,0,1.7,8.8,2.4,12.7s1,9.6-0.4,13.7C92.9,191,92.4,192.2,91.8,193.2z"/>
		</g>
		<path class="st2" d="M60.2,161.1c0-1.4,0.3-2.8,0.7-4.1c0.3-1.4,0.7-2.7,1.3-4c0,1.4-0.3,2.8-0.7,4.1
			C61.2,158.5,60.8,159.8,60.2,161.1z"/>
		<path class="st2" d="M63.4,159c-0.8-1.9-1.2-3.9-1.2-5.9c0.5,0.9,0.7,1.9,0.9,2.9C63.3,156.9,63.4,157.9,63.4,159z"/>
		<polygon class="st7" points="158.4,100.7 140.3,130.1 154.6,134 170.4,109.7 		"/>
		<path class="st3" d="M157.3,125.7l0.6,4.3l2.5,3.3l0.3,2.7l9.1-2.8l-3.7-13c0.3-1.8,0.4-3.5,0.4-5.3l-2.5,3.3l-0.7-5.4l-5.1-4.1
			c-0.6-0.4-1.3-0.3-1.7,0.3l0,0l0,0c-0.4,0.5-0.3,1.2,0.1,1.6l4.1,3.6l0.3,4.5l-3-2.8c-0.3-0.3-0.7-0.5-1.1-0.5l-4.1-0.8
			c-0.6-0.1-1.2,0.3-1.3,0.9v0.1l0,0c-0.1,0.5,0.3,1,0.8,1.1l3.8,1.1l3.8,3.8l-3.7-1.4l-5.1,0.7c-0.5,0.1-0.8,0.5-0.8,1l0,0
			c0,0.6,0.4,1,1,1l3.2-0.2l1.9,0.6l-4.3,1.1c-0.4,0.1-0.7,0.5-0.6,0.9l0,0c0,0.5,0.4,0.9,0.9,0.8l0,0L157.3,125.7z"/>
		<g class="st5">
			<polygon points="158.5,136.6 158.1,141.4 171.9,137.6 170.3,133 			"/>
		</g>
		<path class="st2" d="M140.3,130.1c0,0-1.2-1.6-1.1-1.9s17.2-28.5,17.2-28.5l2,1.1L140.3,130.1z"/>
		<path class="st2" d="M163,108.1c0.2-0.2,0.6-0.2,0.9,0c0.2,0.2,0.2,0.6,0,0.9c-0.2,0.2-0.4,0.2-0.6,0.2c-0.3-0.1-0.5-0.5-0.4-0.8
			C162.9,108.3,162.9,108.2,163,108.1"/>
		<path class="st8" d="M151.6,144.3c-0.1,0.3-0.3,0.5-0.5,0.7c-0.6,0.6-1.4,1-2.2,1.2c-1.3,0.3-2.7,0.3-4,0
			c-1.7-0.4-3.4-0.5-5.1-0.2c-2,0.6-3.9,1.6-5.4,3c-1.8,1.4-3.7,3.1-6.2,3.9c-1.3,0.4-2.7,0.5-4,0.3c-1.4-0.2-2.7-0.6-4-1.1
			c-2.6-1-5.1-2.5-7.9-3.5c-2.7-1-5.6-1.2-8.4-0.6c-2.7,0.6-5.3,1.5-7.8,2c-4.5,1-9.2,0.3-13.3-1.8c-2.8-1.4-5.2-3.5-7-6
			c-0.7-0.9-1.2-1.9-1.7-2.9c0.1,0,0.6,1.1,1.8,2.8c1.9,2.4,4.3,4.4,7,5.8c4,2.1,8.7,2.7,13.1,1.7c2.5-0.5,5-1.5,7.8-2.1
			c2.9-0.7,5.9-0.5,8.6,0.6c2.8,1,5.3,2.5,7.9,3.5c1.2,0.5,2.5,0.9,3.9,1.1c1.3,0.2,2.6,0.1,3.8-0.3c2.4-0.7,4.3-2.4,6.1-3.8
			c1.6-1.4,3.5-2.4,5.6-3c1.8-0.2,3.5-0.1,5.3,0.3c1.3,0.3,2.6,0.3,3.9,0.1c0.8-0.1,1.6-0.5,2.2-1
			C151.2,144.7,151.4,144.5,151.6,144.3z"/>
		<path class="st2" d="M157.3,163.3c-0.3-1.5-0.5-2.9-0.4-4.4c-0.1-1.5-0.1-3,0.1-4.4c0.3,1.5,0.5,2.9,0.4,4.4
			C157.6,160.4,157.5,161.9,157.3,163.3z"/>
		<path class="st3" d="M126.1,347.2c0.4,1.7,10.6,58.9,10.6,58.9l15.6-1.2l-2.9-58.4L126.1,347.2z"/>
		<path class="st4" d="M152.8,405.9l-0.1-1.6l-16.6,0.4l0.1,5.4h1c4.6,0.1,23.3,0.5,26.3-0.5C167,408.6,152.8,405.9,152.8,405.9z"/>
		<g class="st9">
			<path d="M142.2,409.8c-0.3-1.3-1.1-2.5-2.2-3.2c-1.1-0.8-2.5-1.2-3.9-1l0.1,4.3L142.2,409.8z"/>
		</g>
		<g class="st9">
			<path d="M159.8,407.4c0,0,5,1.2,4.4,2s-19.5,1.1-27.9,0.6v-0.4l22.1-0.2C158.3,409.4,158.8,407.5,159.8,407.4z"/>
		</g>
		<path class="st2" d="M136,409.6h0.3h0.8l3,0.1c2.6,0,6.1,0,9.9,0s7.4-0.2,9.9-0.3l3-0.2l0.8-0.1h0.3h-0.3h-0.8l-3,0.1
			c-2.5,0.1-6.1,0.2-9.9,0.3s-7.4,0.1-9.9,0.1H136L136,409.6z"/>
		<path class="st2" d="M158.3,409.7c0.1-0.5,0.3-0.9,0.5-1.4c0.3-0.4,0.6-0.8,1-1.1c-0.5,0.2-0.9,0.5-1.2,1
			C158.4,408.6,158.3,409.2,158.3,409.7z"/>
		<path class="st2" d="M153.4,407.5c0,0,0.3-0.2,0.5-0.6s0.4-0.7,0.3-0.7s-0.3,0.2-0.5,0.6S153.4,407.4,153.4,407.5z"/>
		<path class="st2" d="M152,406.8c0,0,0.3-0.1,0.6-0.4s0.5-0.5,0.4-0.5s-0.3,0.1-0.6,0.4S152,406.8,152,406.8z"/>
		<path class="st2" d="M151.2,405.4c0.3,0.1,0.6,0.1,0.9,0.1c0.3,0,0.6,0,0.9-0.1c-0.3-0.1-0.6-0.1-0.9-0.1
			C151.7,405.2,151.4,405.3,151.2,405.4z"/>
		<path class="st2" d="M150.9,404.4c0.3,0.2,0.6,0.3,1,0.3c0.3,0.1,0.7,0,1-0.1c-0.3,0-0.7,0-1,0
			C151.5,404.4,151.2,404.4,150.9,404.4z"/>
		<path class="st2" d="M153.9,406.1c0.4,0.1,0.7,0.1,1.1,0c0.4,0,0.8-0.1,1.1-0.3c0.2-0.1,0.4-0.1,0.6-0.3c0.1-0.1,0.2-0.2,0.3-0.3
			c0-0.2,0-0.3-0.2-0.4c-0.8-0.4-1.8-0.1-2.4,0.6c-0.2,0.2-0.3,0.4-0.3,0.7c0,0.2,0,0.3,0,0.3c0.1-0.3,0.3-0.6,0.5-0.9
			s0.6-0.5,0.9-0.6c0.4-0.1,0.9-0.1,1.3,0.1c0.2,0.1,0.1,0.3-0.1,0.4c-0.2,0.1-0.4,0.2-0.6,0.3c-0.4,0.1-0.7,0.2-1.1,0.3
			C154.3,406.1,153.9,406.1,153.9,406.1z"/>
		<path class="st2" d="M154.2,406.1c0.1-0.2,0.2-0.5,0.1-0.7c0-0.3-0.1-0.5-0.3-0.7c-0.2-0.3-0.5-0.5-0.9-0.5
			c-0.2,0-0.4,0.2-0.3,0.4l0,0c0,0.2,0.1,0.3,0.2,0.4c0.1,0.2,0.3,0.4,0.5,0.6C153.7,405.9,153.9,406,154.2,406.1
			c-0.1,0-0.3-0.2-0.6-0.5c-0.2-0.2-0.3-0.4-0.5-0.6c-0.1-0.2-0.3-0.6,0-0.6s0.5,0.2,0.7,0.4c0.2,0.2,0.3,0.4,0.3,0.6
			C154.2,405.7,154.2,405.9,154.2,406.1z"/>
		<path class="st2" d="M136.2,405.4c0,0,0.5,0,1.2,0c1,0.1,1.9,0.4,2.7,1c0.8,0.5,1.4,1.3,1.7,2.2c0.3,0.7,0.3,1.1,0.3,1.1
			c0-0.1,0-0.2,0-0.3c0-0.3-0.1-0.6-0.2-0.8c-0.3-0.9-0.9-1.7-1.7-2.3c-0.8-0.6-1.8-0.9-2.8-1c-0.3,0-0.6,0-0.9,0
			C136.4,405.4,136.2,405.4,136.2,405.4z"/>
		<path class="st2" d="M144.3,408.2c0.8,0.2,1.6,0.2,2.4,0.2c0.8,0,1.6-0.1,2.4-0.2c0-0.1-1.1,0-2.4,0S144.3,408.2,144.3,408.2z"/>
		<path class="st2" d="M141,408.3c0,0,0.1,0.2,0.2,0.4s0.2,0.4,0.2,0.4s0.1-0.3-0.1-0.5S141.1,408.2,141,408.3z"/>
		<path class="st2" d="M139.8,406.9c0,0,0.1,0.2,0.2,0.4s0.4,0.3,0.4,0.2s-0.1-0.2-0.3-0.4S139.8,406.9,139.8,406.9z"/>
		<path class="st2" d="M138,406.3c0,0,0.2,0,0.5,0.1s0.4,0.2,0.5,0.2s-0.1-0.3-0.4-0.3S138,406.2,138,406.3z"/>
		<path class="st2" d="M136.8,406c0,0,0.1,0.1,0.2,0.2s0.3,0,0.3,0s-0.1-0.1-0.2-0.2S136.8,405.9,136.8,406z"/>
		<path class="st3" d="M86.4,342.4c-0.1,1.8-6.6,57.5-6.6,57.5l15.3,3.4l14.1-56.7L86.4,342.4z"/>
		<path class="st4" d="M95.8,404.8l0.4-1.6l-16.3-3.6l-1.2,5.3l1,0.3c4.4,1.2,22.5,6,25.7,5.8C108.9,410.8,95.8,404.8,95.8,404.8z"
			/>
		<g class="st9">
			<path d="M84.6,406.1c0-1.4-0.5-2.7-1.4-3.7s-2.2-1.7-3.5-2l-0.9,4.2L84.6,406.1z"/>
		</g>
		<g class="st9">
			<path d="M102.1,407.9c0,0,4.5,2.4,3.8,3s-19.2-3.6-27.2-6.1l0.1-0.3l21.5,5C100.3,409.5,101.2,407.8,102.1,407.9z"/>
		</g>
		<path class="st2" d="M78.5,404.5l0.3,0.1l0.8,0.2l2.9,0.8c2.5,0.6,5.9,1.5,9.7,2.4s7.2,1.6,9.7,2l3,0.5l0.8,0.1h0.3l-0.3-0.1
			l-0.8-0.2l-3-0.6c-2.5-0.5-5.9-1.2-9.7-2.1s-7.2-1.7-9.7-2.3l-2.9-0.7l-0.8-0.2C78.7,404.5,78.6,404.5,78.5,404.5z"/>
		<path class="st2" d="M100.2,409.8c0.2-0.4,0.5-0.8,0.8-1.2c0.4-0.3,0.8-0.6,1.2-0.8c-0.5,0.1-1,0.3-1.4,0.7
			C100.5,408.8,100.3,409.3,100.2,409.8z"/>
		<path class="st2" d="M95.9,406.5c0,0,0.3-0.2,0.6-0.5s0.5-0.6,0.5-0.6s-0.3,0.2-0.6,0.5S95.9,406.4,95.9,406.5z"/>
		<path class="st2" d="M94.8,405.5c0.2,0,0.5-0.1,0.6-0.2c0.3-0.2,0.6-0.4,0.6-0.4s-0.3,0-0.6,0.2S94.7,405.5,94.8,405.5z"/>
		<path class="st2" d="M94.2,403.9c-2.3,0-4.1,1.8-4.2,4c0,2.3,1.8,4.1,4,4.2c2.3,0,4.1-1.8,4.2-4c0-1.9-1.3-3.6-3.1-4.1
			C94.8,403.9,94.5,403.9,94.2,403.9z"/>
		<path class="st2" d="M94.2,402.8c0.2,0.2,0.5,0.4,0.9,0.5c0.3,0.1,0.7,0.2,1,0.1c-0.3-0.1-0.6-0.2-0.9-0.3
			C94.8,403,94.5,402.9,94.2,402.8z"/>
		<path class="st2" d="M96.8,405.3c0.3,0.1,0.7,0.2,1,0.2c0.4,0,0.8,0,1.2,0c0.2,0,0.5,0,0.7-0.1c0.1,0,0.3-0.1,0.3-0.2
			c0.1-0.1,0-0.3-0.1-0.4c-0.7-0.6-1.7-0.6-2.5,0c-0.2,0.2-0.4,0.3-0.5,0.6c-0.1,0.1-0.1,0.3-0.1,0.3c0.2-0.3,0.4-0.5,0.6-0.7
			c0.3-0.2,0.6-0.3,1-0.3s0.9,0.1,1.2,0.4c0.1,0.1,0,0.3-0.2,0.4s-0.4,0.1-0.6,0.1c-0.4,0-0.8,0-1.1,0
			C97.2,405.3,96.8,405.2,96.8,405.3z"/>
		<path class="st2" d="M97,405.4c0,0,0.2-0.2,0.3-0.6c0-0.3,0-0.5-0.1-0.8s-0.4-0.6-0.8-0.7c-0.2,0-0.4,0.2-0.4,0.4l0,0
			c0,0.2,0,0.3,0.1,0.5s0.2,0.5,0.4,0.7C96.6,405,96.7,405.2,97,405.4c-0.1,0-0.3-0.3-0.5-0.6c-0.1-0.2-0.2-0.4-0.3-0.7
			c-0.1-0.2-0.1-0.6,0.2-0.6s0.5,0.3,0.6,0.6c0.1,0.2,0.2,0.5,0.2,0.7C97.1,404.9,97.1,405.2,97,405.4z"/>
		<path class="st2" d="M79.7,400.4c0,0,0.5,0.1,1.2,0.3c0.9,0.3,1.7,0.9,2.4,1.6c0.6,0.7,1,1.6,1.2,2.5c0,0.4,0.1,0.8,0.1,1.1
			c0,0,0.1-0.1,0.1-0.3c0-0.3,0-0.6,0-0.9c-0.1-1-0.5-1.9-1.1-2.6c-0.7-0.8-1.5-1.3-2.5-1.6c-0.3-0.1-0.6-0.1-0.9-0.2
			C80,400.4,79.9,400.4,79.7,400.4z"/>
		<path class="st2" d="M86.9,405c0.7,0.3,1.5,0.6,2.3,0.8c0.8,0.2,1.6,0.3,2.4,0.4c0,0-1.1-0.2-2.4-0.5S86.9,405,86.9,405z"/>
		<path class="st2" d="M83.7,404.3c0,0,0,0.2,0.1,0.5s0.1,0.5,0.1,0.5s0.1-0.2,0.1-0.5S83.8,404.3,83.7,404.3z"/>
		<path class="st2" d="M82.9,402.7c0,0,0,0.2,0.2,0.4s0.3,0.3,0.3,0.3s0-0.2-0.1-0.4S82.9,402.6,82.9,402.7z"/>
		<path class="st2" d="M81.3,401.6c0,0.1,0.2,0.1,0.4,0.2s0.4,0.3,0.4,0.3s0-0.3-0.3-0.4S81.3,401.6,81.3,401.6z"/>
		<path class="st2" d="M80.1,401.1c0,0,0.1,0.1,0.2,0.2s0.3,0.1,0.3,0.1s0-0.1-0.2-0.2S80.2,401,80.1,401.1z"/>
		<path class="st2" d="M143.7,94.4c-0.4-1.2-1.4-2.1-1.9-3.2c-0.7-1.7-0.2-3.7,0-5.6s-0.2-4.1-1.9-4.9c-0.7-0.2-1.5-0.4-2.2-0.7
			c-1.3-0.8-1.3-2.7-1.4-4.3c-0.1-1-0.3-2.1-0.8-3l0.3-0.1c2.1-0.5,4.2,0.6,5.1,2.5c0.4,0.8,0.3,1.8-0.2,2.5
			c-0.4,0.6-1.2,0.9-1.9,0.6c-0.6-0.3-0.8-0.9-0.7-1.5c0.2-0.4,0.6-0.7,1.1-0.6c0.3,0,0.6,0.2,0.8,0.4c0.1,0.2,0.1,0.3,0.1,0.3
			s0-0.1,0-0.3c-0.2-0.3-0.5-0.6-0.9-0.6c-0.3,0-0.5,0-0.8,0.1s-0.6,0.4-0.7,0.7c-0.2,0.8,0.1,1.6,0.8,2c0.9,0.4,2,0.1,2.5-0.7
			c0.6-0.9,0.7-2,0.3-3c-0.9-2.1-3-3.3-5.3-3c0.5-0.8,0.6-1.8,0.3-2.7c-0.4-1.1-1.2-1.9-2.3-2.3c-0.9-0.3-2-0.4-2.9-0.2
			c-0.8,0.2-1.6,0.5-2.3,1c-0.6,0.4-1.1,0.9-1.6,1.2c-0.4,0.3-0.9,0.5-1.4,0.5c-0.4,0-0.8,0-1.2-0.3c0,0,0.3,0.5,1.2,0.5
			c0.5,0,1.1-0.2,1.5-0.5c0.5-0.3,1.1-0.8,1.7-1.1c1.4-1,3.2-1.2,4.8-0.7c0.9,0.3,1.7,1.1,2,2s0,2-0.7,2.7c-0.5-0.9-1.3-1.7-2.2-2.2
			c-2-1.1-5-0.6-6,1.5l-16.4-5.6c-2.1-1.8-4.9-2.3-7.5-1.5l-0.3-0.1c-0.9-0.1-1.9,0.1-2.8,0.5c-1.1,0.6-2,1.4-2.8,2.4
			c-0.4,0.5-1,1-1.6,1.3c-0.1,0-0.2,0.1-0.3,0.1c-0.7,0.1-1.5,0.1-2.2,0.1c-1.4-0.3-2.8-1.1-4.5-1.3c-1-0.1-1.9-0.1-2.8,0.2
			c-1,0.3-1.9,0.8-2.5,1.6c-0.7,0.8-1.1,1.8-1.1,2.9c0,0.8,0.1,1.5,0.4,2.3c-0.4,1-0.5,2-0.5,3.1c0.1,1.4,0.5,2.8,0.5,4.2
			c-0.4,0.3-0.9,0.5-1.4,0.7c-0.9,0.3-1.8,0.4-2.7,0.7c-1.7,0.7-3,2-3.5,3.8c-0.6,1.4-0.4,2.9,0.4,4.1c-0.4,1.8,0,3.8,1.2,5.3
			c0.9,0.9,1.8,1.8,2.6,2.8c1.1,1.7,0.9,3.8,1.2,5.8s1.4,4.2,3.4,4.3c1.6,0.1,3-1.2,4.6-1.1c2.2,0.2,3.2,2.9,4.5,4.7
			c1.7,2.4,4.6,3.6,7.4,3.2c2-0.3,4.1-1.4,6.1-0.9c2.5,0.6,4,3.6,6.6,3.9c1.9,0.3,3.7-1,5.1-2.3s2.9-2.8,4.8-3.1
			c2.3-0.4,4.5,1,6.8,1.3c3.1,0.4,6-1.1,7.6-3.8c1.3-2.3,1.3-5.1,2.4-7.4c0.9-1.5,1.9-2.9,3-4.3C143.6,97.9,144.3,96.1,143.7,94.4z
			 M77.9,87c-0.2,0-0.4,0-0.6,0c0,0,0.2,0,0.4,0.1l-0.3,0.2c-0.9,0.8-1.6,1.8-1.9,3C75,89.2,75,88,75.4,86.9
			c0.6-1.6,1.8-2.8,3.3-3.4c0.8-0.3,1.7-0.4,2.6-0.7c0.4-0.1,0.8-0.3,1.1-0.5c0,0.5-0.2,1.1-0.5,1.6C81.2,85.4,79.4,86,77.9,87
			L77.9,87z M89.1,68.6c-2.7,0.5-5,2.3-6.2,4.7c-0.1-0.4-0.2-0.9-0.2-1.4c0-0.9,0.3-1.8,0.9-2.5c1.3-1.3,3.1-1.9,4.9-1.7
			c0.9,0.1,1.8,0.4,2.7,0.7C90.6,68.5,89.9,68.5,89.1,68.6L89.1,68.6z M97.4,67.9c-0.2,0.1-0.4,0.2-0.6,0.2c0.3-0.3,0.6-0.5,0.8-0.8
			c0.7-1,1.6-1.8,2.6-2.4c0.8-0.4,1.6-0.5,2.4-0.5c-0.4,0.2-0.8,0.4-1.2,0.6C100,65.9,98.9,67.3,97.4,67.9L97.4,67.9z"/>
		<path class="st3" d="M133,102.3c0.8-4.9,0.5-13,0.1-19.6c-0.4-5.8-5.3-10.1-11.1-9.8c-0.1,0-0.3,0-0.4,0l-17.2,1.8
			c-1.8,0.2-3.2,1.7-3.1,3.5l1.8,42.2h-4v7.6c0,8.7,7.1,15.8,15.8,15.8s15.8-7.1,15.8-15.8v-6.6c0,0-4.1-1.4-6.6-1.2h-0.6
			c0-3.9,0.3-6.9,0.3-6.9S131.4,112.2,133,102.3z"/>
		<path class="st2" d="M130.5,89.1c0,0.7-0.5,1.3-1.2,1.3c-0.7,0.1-1.3-0.4-1.3-1.1l0,0c0-0.7,0.5-1.3,1.2-1.3
			C129.9,87.9,130.4,88.4,130.5,89.1L130.5,89.1z"/>
		<path class="st2" d="M131.3,86.9c-0.2,0.2-1.1-0.6-2.5-0.6s-2.4,0.7-2.5,0.5s0.1-0.4,0.5-0.7c0.6-0.4,1.3-0.6,2-0.6s1.4,0.2,2,0.6
			C131.2,86.5,131.4,86.8,131.3,86.9z"/>
		<path class="st2" d="M117.1,89.1c0,0.7-0.5,1.3-1.2,1.3c-0.7,0.1-1.3-0.4-1.3-1.1l0,0c0-0.7,0.5-1.3,1.2-1.3
			C116.5,87.9,117.1,88.4,117.1,89.1L117.1,89.1z"/>
		<path class="st2" d="M117.9,87.2c-0.2,0.2-1.1-0.5-2.5-0.5s-2.4,0.7-2.5,0.5s0.1-0.4,0.5-0.7c0.6-0.4,1.3-0.6,2-0.6s1.4,0.2,2,0.6
			C117.8,86.8,118,87.1,117.9,87.2z"/>
		<path class="st2" d="M122.8,97.3c0.7-0.2,1.5-0.4,2.2-0.4c0.4,0,0.7-0.1,0.7-0.3c0-0.3-0.1-0.7-0.2-1c-0.3-0.8-0.7-1.7-1-2.7
			c-1.4-3.8-2.5-6.9-2.3-6.9c1.1,2.2,2.1,4.4,2.9,6.8c0.3,0.9,0.7,1.8,1,2.7c0.2,0.4,0.3,0.9,0.2,1.4c-0.1,0.2-0.3,0.4-0.6,0.5
			c-0.2,0.1-0.4,0.1-0.6,0.1C124.4,97.4,123.6,97.4,122.8,97.3z"/>
		<path class="st10" d="M123.8,113.5c-4.7,0.1-9.3-1.2-13.3-3.5c0,0,3.2,6.8,13.1,5.9L123.8,113.5z"/>
		<path class="st10" d="M122.3,100.6c-0.5-0.7-1.4-1-2.2-0.9c-0.6,0.1-1.2,0.4-1.6,0.8c-0.4,0.5-0.4,1.1-0.1,1.6
			c0.5,0.5,1.2,0.7,1.8,0.4c0.6-0.2,1.2-0.6,1.8-1c0.2-0.1,0.3-0.3,0.4-0.4C122.4,101,122.4,100.8,122.3,100.6"/>
		<path class="st2" d="M118.8,98.2c0.2,0,0.2,1.5,1.5,2.5s2.9,0.9,2.9,1.1s-0.4,0.3-1,0.3c-0.9,0-1.7-0.3-2.4-0.8
			c-0.6-0.5-1.1-1.3-1.2-2.1C118.6,98.6,118.7,98.2,118.8,98.2z"/>
		<path class="st2" d="M118.5,84.8c-0.1,0.4-1.5,0.2-3.1,0.4s-2.9,0.6-3.1,0.3c-0.1-0.1,0.1-0.5,0.6-0.9c0.7-0.5,1.5-0.7,2.3-0.8
			s1.7,0,2.4,0.3C118.3,84.3,118.6,84.6,118.5,84.8z"/>
		<path class="st2" d="M130.8,84.1c-0.2,0.3-1.2,0-2.3,0s-2.1,0.2-2.3-0.1c-0.1-0.2,0-0.5,0.5-0.8c0.6-0.4,1.2-0.5,1.9-0.5
			s1.3,0.2,1.9,0.6C130.8,83.6,130.9,84,130.8,84.1z"/>
		<path class="st2" d="M136.8,73.9c-0.7-2.6-2.7-5.1-5.4-5.6c-1.8-0.3-3.5,0.2-5.3,0.1c-1.5-0.1-2-1.3-3.4-1.7
			c-2.3-0.8-4.1-3.3-9.1-2.8c-1.3,0.2-3.1,1.7-4.3,3.5c-1.9-0.8-4.4,0.1-5.8,0.7c-2.9,1.3-4.7,4.5-5.2,7.8s-0.1,6.6,0.4,9.9
			c0.2,1.5,0.4,3,0.6,4.5c0.1,1,0.3,2,0.8,2.9l-2.3,21.2c4.6,1.5,9.6-1.1,11.1-5.7c0-0.2,0.1-0.3,0.1-0.5c0.9-4.2-1.4-8.4-1.1-12.7
			c0.2-2.5,1.6-4.9,1.6-7.4c0-0.8-0.1-1.7-0.4-2.5l0,0c4-3.3,5.1-5.9,4.9-9c1.2,0.9,2.7,1.3,4.2,1.4c2.1,0,4.3-0.8,6.3,0
			c1.4,0.7,2.6,1.7,3.5,2.9c1.1,1.1,2.5,2.1,4,1.9c0.7-0.2,1.4-0.4,2.1-0.7c0.7-0.3,1.5-0.3,2.1,0C137.1,79.3,137.3,76.5,136.8,73.9
			z"/>
		<path class="st7" d="M77.5,95.6c1,0.7,2.1,1.4,3.3,1.9c1.4,0.6,2.8,0.9,4.3,0.9c2,0.1,3.9-0.5,5.5-1.7c1.9-1.3,3.2-3.5,3.5-5.8
			c0.2-1.3-0.1-2.6-0.8-3.7c-0.7-1.2-1.9-1.9-3.3-2c-0.7,0-1.3,0.2-1.9,0.6c-0.5,0.5-0.9,1.1-1.2,1.7c-0.5,1.4-0.2,3,0.8,4.1
			c1,1.2,2.4,2,3.9,2.3c1.6,0.4,3.2,0.4,4.8,0.1c1.6-0.3,3.1-1,4.4-2c1.2-1,2.2-2.3,2.7-3.7s0.6-3,0.4-4.4c-0.1-0.7-0.4-1.4-0.7-2
			s-0.8-1.2-1.4-1.6c-0.5-0.4-1.2-0.7-1.8-0.7s-1.2,0.3-1.5,0.9c-0.3,0.6-0.4,1.2-0.2,1.8s0.5,1.1,1,1.6c3.4,2.9,8.5,2.7,11.6-0.4
			c1-1.1,1.8-2.4,2.2-3.8c0.3-1.2,0.4-2.5,0.3-3.7c0.1,0.3,0.1,0.7,0.2,1c0.1,1,0,1.9-0.3,2.8c-0.4,1.5-1.1,2.8-2.2,3.9
			c-1.4,1.5-3.3,2.4-5.3,2.6c-2.5,0.3-5-0.4-6.9-2.1c-0.5-0.5-0.9-1.1-1.1-1.8c-0.2-0.7-0.1-1.5,0.2-2.2c0.4-0.7,1.1-1.1,1.9-1.1
			c0.8,0,1.5,0.3,2.1,0.8s1.1,1,1.5,1.7c0.4,0.7,0.7,1.4,0.8,2.2c0.3,1.6,0.2,3.2-0.4,4.7c-0.6,1.6-1.6,3-2.9,4
			c-1.4,1-2.9,1.8-4.6,2.1c-1.7,0.3-3.4,0.3-5-0.1c-1.6-0.4-3.1-1.2-4.2-2.5c-0.5-0.6-0.9-1.4-1-2.2s-0.1-1.6,0.2-2.4
			c0.2-0.8,0.7-1.5,1.3-2s1.4-0.7,2.2-0.7c1.5,0.1,2.9,0.9,3.6,2.3c0.7,1.2,1,2.6,0.8,4c-0.3,2.5-1.7,4.7-3.8,6.1
			c-1.7,1.2-3.7,1.7-5.7,1.6c-1.5,0-3-0.4-4.4-1c-0.9-0.4-1.7-0.9-2.5-1.4c-0.3-0.2-0.4-0.4-0.6-0.5L77.5,95.6z"/>
		<path class="st7" d="M137.3,78.3c-0.1,0.1-0.3,0.2-0.5,0.3c-0.5,0.3-1,0.5-1.6,0.6c-0.9,0.2-1.8,0.2-2.7,0
			c-1.2-0.3-2.2-0.8-3.1-1.6c-1.1-1-1.9-2.2-2.5-3.5c-0.4-0.8-0.4-1.7-0.1-2.5c0.2-0.4,0.5-0.8,0.9-1c0.5-0.2,1-0.2,1.4,0
			c0.9,0.5,1.3,1.6,1,2.5c-0.4,0.9-1.1,1.7-2,2.1c-1.8,0.8-3.9,0.8-5.8,0.1c-0.9-0.3-1.8-0.8-2.7-1.3c-0.8-0.5-1.6-1.1-2.3-1.8
			c-0.7-0.8-0.8-2-0.2-2.8c0.3-0.4,0.9-0.6,1.4-0.5s0.9,0.4,1.2,0.8s0.4,0.9,0.4,1.4c-0.1,0.5-0.3,0.9-0.6,1.2
			c-0.6,0.6-1.3,1-2.2,1.1c-0.8,0.1-1.5,0-2.3-0.3c-0.7-0.2-1.3-0.5-1.9-0.7c-1.1-0.5-2.1-1.2-2.8-2.1c-0.5-0.7-0.8-1.6-0.7-2.6
			c0-0.6,0.2-1.1,0.6-1.6c0.1-0.2,0.3-0.3,0.4-0.4c-0.5,0.5-0.8,1.3-0.8,2c0,0.8,0.2,1.7,0.8,2.4c0.7,0.9,1.6,1.6,2.7,2
			c1.2,0.6,2.6,0.9,4,0.9c0.7-0.1,1.4-0.4,1.9-1c0.5-0.5,0.6-1.4,0.1-2c-0.4-0.6-1.4-0.8-1.9-0.2c-0.2,0.3-0.3,0.7-0.3,1.1
			c0.1,0.4,0.2,0.8,0.5,1.1c0.6,0.7,1.3,1.2,2.1,1.7s1.7,0.9,2.6,1.2c1.7,0.7,3.7,0.7,5.4,0c0.8-0.3,1.4-1,1.7-1.8s-0.1-1.6-0.8-2
			c-0.6-0.3-1.4,0-1.7,0.6v0.1c-0.3,0.7-0.2,1.4,0.1,2.1c0.5,1.3,1.3,2.4,2.3,3.4c0.8,0.8,1.8,1.3,2.9,1.6c0.8,0.2,1.7,0.3,2.6,0.1
			C136,78.9,136.7,78.7,137.3,78.3z"/>
		<path class="st7" d="M108.5,101.6c-0.1,0.1-0.3,0.3-0.4,0.3c-0.4,0.3-0.9,0.5-1.5,0.6c-0.8,0.2-1.7,0.1-2.5-0.2
			c-1.1-0.3-2-1.1-2.5-2.1c-0.3-0.7-0.2-1.5,0.4-2c0.6-0.5,1.5-0.5,2.1,0c1.3,1,1.9,2.7,1.5,4.3c-0.2,1.8-1.3,3.3-2.9,4.1
			c-1.8,0.7-3.8,0.6-5.4-0.4c-0.8-0.5-1.5-1.1-2.1-1.9c-0.5-0.8-0.7-1.8-0.5-2.7c0.1-0.5,0.4-0.9,0.7-1.2c0.4-0.3,0.8-0.5,1.3-0.5
			c0.9,0.1,1.7,0.6,2.1,1.4c0.4,0.7,0.6,1.5,0.6,2.3c0,0.7,0,1.5-0.2,2.2c-0.3,1.3-1,2.5-2,3.5c-1.4,1.4-3.6,1.8-5.4,1
			c-0.5-0.2-0.9-0.5-1.3-0.9c-0.1-0.1-0.3-0.3-0.3-0.4c0.5,0.5,1.1,0.8,1.7,1.1c0.7,0.3,1.5,0.4,2.3,0.3c1-0.1,2-0.6,2.8-1.3
			c0.9-0.9,1.5-2,1.8-3.3c0.2-0.7,0.2-1.4,0.2-2.1c0-0.7-0.2-1.5-0.6-2.1c-0.3-0.7-1-1.1-1.7-1.2c-0.8,0-1.4,0.6-1.5,1.4
			c-0.2,0.8,0,1.6,0.4,2.3c0.5,0.7,1.1,1.3,1.9,1.7c1.5,0.9,3.3,1,5,0.4c1.4-0.7,2.4-2.1,2.6-3.7c0.3-1.4-0.2-2.9-1.3-3.8
			c-0.5-0.4-1.2-0.4-1.6,0c-0.4,0.4-0.5,1-0.3,1.5c0.4,0.9,1.2,1.7,2.2,2c0.7,0.3,1.6,0.4,2.3,0.2
			C107.2,102.2,107.9,101.9,108.5,101.6z"/>
		<path class="st2" d="M67.2,344.7c0,0,6.7,13,24.1,6.7c0,0,17.1,9.3,33.4-1.1c0,0,21.1,2.8,32.7-2.7l-14.8-127.7l-1.9-19.6H94
			c0,0-13.9,6.3-16.1,37.1s-7,73.1-7,73.1L67.2,344.7z"/>
		<path class="st7" d="M123.7,350.6c0,0,0-0.1,0-0.4s-0.1-0.6-0.1-1.1c-0.1-1-0.2-2.5-0.3-4.4c-0.3-3.8-0.6-9.3-1.1-16
			c-0.8-13.5-1.7-32.3-2.1-53s-0.4-39.5-0.2-53c0.1-6.8,0.2-12.3,0.4-16.1c0.1-1.9,0.1-3.3,0.1-4.4c0-0.5,0-0.9,0-1.1
			c0-0.1,0-0.3,0-0.4c0,0.1,0,0.3,0,0.4v1.1c0,1,0,2.5-0.1,4.4c0,3.8-0.1,9.3-0.2,16.1c-0.1,13.6-0.1,32.3,0.3,53s1.3,39.4,2,53
			c0.4,6.8,0.7,12.2,0.9,16c0.1,1.9,0.2,3.3,0.2,4.4c0,0.5,0,0.9,0.1,1.1C123.7,350.4,123.7,350.5,123.7,350.6z"/>
		<path class="st7" d="M127.8,314.1c0,0,0.1-0.1,0.4-0.2c0.4-0.1,0.8,0,1.1,0.1c0.5,0.3,0.9,0.8,1.1,1.4c0.1,1.1-0.7,2-1.7,2.1
			c-0.5,0-1-0.1-1.3-0.4c-0.4-0.4-0.7-1-0.6-1.6c0-0.4,0.2-0.8,0.5-1c0.2-0.2,0.4-0.2,0.4-0.2c-0.3,0.4-0.4,0.8-0.4,1.3
			s0.2,0.9,0.6,1.2c0.7,0.4,1.6,0.2,2.1-0.5c0.2-0.3,0.2-0.5,0.2-0.8c-0.1-0.5-0.4-0.9-0.8-1.1C128.7,314.1,128.3,314.1,127.8,314.1
			z"/>
		<path class="st7" d="M126.8,276.2c0,0,0.1-0.1,0.4-0.2c0.4-0.1,0.8,0,1.1,0.1c0.6,0.3,0.9,0.8,1.1,1.4c0.1,1.1-0.7,2-1.8,2.1
			c-0.5,0-0.9-0.1-1.3-0.4c-0.4-0.4-0.7-1-0.6-1.6c0-0.4,0.2-0.7,0.4-1c0.2-0.2,0.4-0.2,0.4-0.2c-0.3,0.4-0.4,0.8-0.4,1.3
			s0.2,0.9,0.6,1.2c0.7,0.4,1.6,0.3,2.1-0.4c0.2-0.3,0.2-0.6,0.2-0.9c-0.1-0.5-0.4-0.9-0.8-1.1C127.7,276.3,127.2,276.2,126.8,276.2
			z"/>
		<path class="st7" d="M126.2,242.7c0,0,0.1-0.1,0.4-0.2c0.4-0.1,0.8,0,1.1,0.1c0.6,0.3,1,0.8,1.1,1.4c0.1,1.1-0.7,2-1.7,2.1
			c-0.5,0-1-0.1-1.3-0.4c-0.4-0.4-0.7-1-0.6-1.6c0-0.4,0.2-0.8,0.4-1s0.4-0.2,0.4-0.2c-0.3,0.4-0.4,0.8-0.5,1.3
			c0,0.5,0.2,0.9,0.6,1.2c0.7,0.4,1.6,0.2,2.1-0.5c0.2-0.3,0.2-0.5,0.2-0.8c-0.1-0.5-0.4-0.9-0.8-1.1
			C127.1,242.7,126.6,242.6,126.2,242.7z"/>
		<path class="st7" d="M125,206.8c0,0,0.1-0.1,0.4-0.2c0.4-0.1,0.8,0,1.1,0.1c0.5,0.3,0.9,0.8,1.1,1.4c0.1,0.8-0.3,1.5-1,1.9
			s-1.5,0.4-2.1-0.1c-0.4-0.4-0.7-1-0.6-1.6c0-0.4,0.2-0.7,0.5-1c0.2-0.2,0.4-0.2,0.4-0.2c-0.3,0.4-0.4,0.8-0.4,1.3s0.2,0.9,0.6,1.2
			c0.7,0.4,1.6,0.2,2.1-0.5c0.2-0.3,0.2-0.5,0.2-0.8c-0.1-0.5-0.4-0.9-0.8-1.1C125.9,206.9,125.4,206.8,125,206.8z"/>
	</g>
	<g id="freepik--Message--inject-2">
		<polygon class="st4" points="185.8,168 421.7,166.3 428.3,326.6 184,324.4 		"/>
		<path class="st4" d="M185.8,168l111.6-90.3c4.7-3.8,11.5-3.8,16.2,0.1l108,88.6"/>
		<g class="st9">
			<path d="M185.8,168l111.6-90.3c4.7-3.8,11.5-3.8,16.2,0.1l108,88.6"/>
		</g>
		<path class="st2" d="M184,324.4c-0.3-0.3,18.6-20.9,42.2-46s42.9-45.3,43.2-45s-18.6,20.9-42.2,46S184.3,324.7,184,324.4z"/>
		<path class="st2" d="M428.3,326.6c-0.3,0.3-18.7-19.9-41.1-45.1s-40.3-45.8-40-46.1s18.7,19.9,41.1,45.1S428.6,326.4,428.3,326.6z
			"/>
		<g class="st11">
			<polyline points="421.7,166.3 303.3,260.9 185.8,168 			"/>
		</g>
		<polygon class="st8" points="197.7,176.8 197.4,103.1 403.9,100.7 406.2,178.2 303.2,259.7 		"/>
		<path class="st2" d="M197.7,176.8c0,0,0.7,0.5,1.9,1.5l5.6,4.4l21.4,16.7l76.8,60.2h-0.3L406,178.1l-0.1,0.2
			c-0.4-14.8-0.9-30.3-1.4-46.1c-0.3-10.6-0.6-21.1-0.9-31.4l0.3,0.3l-206.5,2.4l0.2-0.2c0.1,23.2,0.1,41.6,0.2,54.2
			c0,6.3,0,11.2,0,14.5v3.7C197.7,176.3,197.7,176.8,197.7,176.8s0-0.4,0-1.3s0-2.1,0-3.7c0-3.3-0.1-8.1-0.1-14.4
			c-0.1-12.6-0.2-31.1-0.4-54.3v-0.2h0.2l206.5-2.5h0.3v0.3c0.3,10.3,0.6,20.8,0.9,31.4c0.5,15.8,0.9,31.3,1.4,46.1v0.1l-0.1,0.1
			l-103,81.5l-0.1,0.1l-0.1-0.1l-76.8-60.4l-21.2-16.8l-5.6-4.4C198.3,177.3,197.7,176.8,197.7,176.8z"/>
		<path class="st2" d="M371.2,137.7c0,0.1-31.6,0.4-70.5,0.7s-70.6,0.3-70.6,0.2s31.6-0.4,70.5-0.7S371.2,137.6,371.2,137.7z"/>
		<path class="st2" d="M371.2,158.5c0,0.1-31.6,0.5-70.5,0.7s-70.6,0.3-70.6,0.2s31.6-0.4,70.5-0.7S371.2,158.4,371.2,158.5z"/>
		<path class="st2" d="M371.2,182.5c0,0.1-31.6,0.4-70.5,0.7s-70.6,0.3-70.6,0.2s31.6-0.4,70.5-0.7S371.2,182.4,371.2,182.5z"/>
		<path class="st2" d="M371.2,206.5c0,0.1-30.1,0.4-67.3,0.7s-67.3,0.3-67.3,0.1s30.1-0.4,67.3-0.7S371.2,206.4,371.2,206.5z"/>
		<path class="st2" d="M344.8,227.6c-0.3,0-0.5,0.1-0.8,0.1l-2.4,0.1l-8.7,0.1l-28.8,0.4c-11.2,0.2-21.4,0.3-28.8,0.3h-8.7h-2.4
			c-0.3,0-0.5,0-0.8,0c0.3,0,0.5-0.1,0.8-0.1l2.4-0.1l8.7-0.1l28.8-0.4c11.2-0.2,21.4-0.3,28.8-0.3h8.7h2.4
			C344.3,227.5,344.5,227.5,344.8,227.6z"/>
		<path class="st2" d="M318.2,247.8c0,0.1-6.7,0.3-15,0.3s-15-0.1-15-0.3s6.7-0.3,15-0.3S318.2,247.7,318.2,247.8z"/>
		<circle class="st2" cx="387.7" cy="206.5" r="25"/>
		<circle class="st7" cx="381.3" cy="206.5" r="25"/>
		<path class="st0" d="M384.4,194.9v20.7h-3.8v-17.5h-4.4v-3.2H384.4z"/>
	</g>
	<g id="freepik--speech-bubble--inject-2">
		<path class="st2" d="M244,53.8c-0.1-0.2-0.1-0.4-0.2-0.6c-0.1-0.4-0.2-1-0.4-1.8c-0.2-1-0.5-1.9-0.8-2.8c-0.2-0.5-0.3-1.2-0.6-1.8
			l-0.9-1.9c-1.5-3.3-3.6-6.3-6-8.9c-3.2-3.4-7.2-6.1-11.5-7.9c-2.5-1-5.1-1.8-7.7-2.2c-2.9-0.4-5.8-0.5-8.7-0.1
			c-1.5,0.2-3,0.4-4.5,0.8c-0.8,0.2-1.5,0.4-2.2,0.7c-0.8,0.2-1.5,0.5-2.2,0.8c-3.1,1.2-5.9,2.9-8.5,5.1c-5.6,4.6-9.6,11-11.3,18.1
			c-0.9,3.8-1.1,7.7-0.6,11.6c0.4,4,1.6,7.9,3.4,11.5l0.6,1.1l0.1,0.1v0.2c-1.9,6-3.6,12-5.4,17.7l-0.5-0.4l14.3-7.4l0.2-0.1
			l0.2,0.1c12.3,9.5,29.5,9.2,41.5-0.7c3-2.5,5.5-5.5,7.5-8.8c1.6-2.8,2.8-5.8,3.6-8.9c0.6-2.4,0.9-4.8,1-7.2c0-1,0-1.9,0-2.6
			s-0.1-1.4-0.2-1.9s-0.1-0.9-0.1-1.2C244,54.1,244,54,244,53.8c0.1,0.1,0.1,0.3,0.1,0.4c0,0.3,0.1,0.7,0.1,1.2
			c0.1,0.5,0.1,1.2,0.2,1.9s0,1.7,0,2.6c-0.1,2.4-0.4,4.9-0.9,7.2c-0.8,3.1-2,6.2-3.6,9c-2,3.4-4.5,6.4-7.6,9
			c-7.5,6.2-17.2,8.9-26.8,7.5c-5.6-0.9-10.9-3.1-15.4-6.6h0.3l-14.3,7.5l-0.7,0.4l0.2-0.8l5.4-17.7v0.3l-0.6-1.1
			c-1.9-3.7-3.1-7.6-3.5-11.7c-0.5-4-0.3-8,0.7-11.9c1.7-7.2,5.8-13.7,11.5-18.4c2.6-2.1,5.5-3.9,8.6-5.1c0.7-0.3,1.5-0.6,2.3-0.8
			c0.8-0.2,1.5-0.5,2.3-0.7c1.5-0.4,3-0.6,4.6-0.8c2.9-0.3,5.9-0.3,8.8,0.2c2.7,0.4,5.3,1.2,7.8,2.3c4.4,1.9,8.4,4.6,11.6,8.1
			c2.5,2.7,4.5,5.8,6,9.1c0.3,0.7,0.6,1.3,0.8,2s0.4,1.2,0.6,1.8c0.3,0.9,0.6,1.9,0.8,2.8c0.1,0.8,0.3,1.3,0.3,1.8
			C243.9,53.5,244,53.7,244,53.8z"/>
		<polyline class="st12" points="196.4,61.7 204.7,70 225.4,49.3 		"/>
	</g>
	<g id="freepik--Plant--inject-2">
		<path class="st4" d="M519.9,291.3c3.3,11,0.8,25.3-3.2,36.1c-4,10.9-11.4,20.3-21.1,26.7c-1.1,0.7-2.5,1.4-3.6,0.8
			c-0.9-0.7-1.4-1.7-1.4-2.8C485.8,327.6,497.7,302.8,519.9,291.3"/>
		<g class="st6">
			<path d="M519.9,291.3c3.3,11,0.8,25.3-3.2,36.1c-4,10.9-11.4,20.3-21.1,26.7c-1.1,0.7-2.5,1.4-3.6,0.8c-0.9-0.7-1.4-1.7-1.4-2.8
				C485.8,327.6,497.7,302.8,519.9,291.3"/>
		</g>
		<path class="st4" d="M470.8,238.9c6.9-0.2,11.4,7.5,12.1,14.3c0.7,6.8-0.8,14,1.2,20.6c2.5,8.4,10.4,14.4,12.7,22.8
			c2.8,9.9-2.7,20.2-2.9,30.5c-0.1,5,1,10.1,0,15c-1.9,10-11.5,16.6-21.6,14.7c-7.3-1.4-13.1-7.1-14.7-14.4
			c-1.6-7.7,1.8-15.9-0.2-23.6c-1.5-5.6-5.9-10.4-6.3-16.2c-0.4-6.9,4.9-12.9,5.9-19.8s-2.5-13.6-3-20.5
			C453.3,249.9,458.4,240.2,470.8,238.9"/>
		<path class="st2" d="M485.9,380.3c0.1-0.2,0.2-0.5,0.2-0.7c0.1-0.5,0.3-1.2,0.5-2c0.4-1.7,1-4.2,1.7-7.3
			c3.9-16.1,9.5-31.7,16.6-46.7c1.4-2.9,2.5-5.2,3.3-6.8l0.9-1.8c0.1-0.2,0.2-0.4,0.3-0.7c-0.2,0.2-0.3,0.4-0.4,0.6l-1,1.8
			c-0.9,1.5-2.1,3.8-3.5,6.7c-7.4,14.9-13,30.6-16.7,46.8c-0.7,3.1-1.2,5.6-1.5,7.4c-0.1,0.8-0.2,1.5-0.3,2
			C485.9,379.8,485.9,380.1,485.9,380.3z"/>
		<path class="st2" d="M471.1,272.7c0,0.4,0,0.7,0.1,1.1c0.1,0.8,0.2,1.8,0.4,3.1l1.5,11.5c1.3,9.8,3.1,23.2,4.9,38.1
			s3.5,28.4,4.6,38.1c0.6,4.8,1,8.8,1.4,11.6c0.2,1.3,0.3,2.4,0.4,3.1c0,0.4,0.1,0.7,0.2,1.1c0-0.4,0-0.7,0-1.1
			c-0.1-0.8-0.2-1.8-0.3-3.2c-0.3-2.8-0.7-6.7-1.2-11.6c-1-9.8-2.6-23.3-4.4-38.2s-3.7-28.4-5.1-38.1c-0.7-4.8-1.3-8.7-1.7-11.5
			c-0.2-1.3-0.4-2.4-0.5-3.1C471.3,273.5,471.2,273.1,471.1,272.7z"/>
		<rect x="457.6" y="366.8" class="st2" width="52.3" height="6.1"/>
		<polygon class="st2" points="462.5,372.9 468.6,409.9 501,409.9 505.3,372.9 		"/>
		<path class="st7" d="M505.4,372.6c0,0.1-9.7,0.4-21.6,0.5s-21.6,0.1-21.6,0s9.7-0.4,21.6-0.5S505.4,372.5,505.4,372.6z"/>
		<path class="st7" d="M503.7,391.2h-0.3h-0.9c-1.1,0-2.2,0-3.3-0.1c-1.8-0.2-3.5-0.8-4.9-1.9c-0.9-0.7-1.7-1.5-2.2-2.5
			c-0.6-1.2-0.7-2.5-0.3-3.7c0.4-1.4,1.8-2.4,3.3-2.4c0.8,0.1,1.5,0.4,2,1s0.8,1.3,1,2.1c0.6,3.2-1.6,6.7-5,7.8s-7.6-0.8-9.3-4.3
			c-0.4-0.9-0.7-1.8-0.8-2.8s0.2-2,0.8-2.9s1.5-1.4,2.6-1.6c1.1-0.1,2.1,0.5,2.8,1.4c0.6,0.9,0.9,1.9,0.9,2.9s-0.3,2-0.8,2.9
			c-0.9,1.7-2.4,3.1-4.2,3.9c-1.7,0.8-3.5,1.3-5.3,1.5c-1.8,0.3-3.6,0.1-5.3-0.5s-3.1-1.7-4-3.1s-1.1-3.1-0.5-4.7
			c0.5-1.5,1.7-2.6,3.3-2.9c1.4-0.2,2.9,0.3,3.8,1.4c0.8,1.1,0.9,2.5,0.3,3.7c-0.5,1-1.2,1.9-2.2,2.5c-0.8,0.5-1.7,0.9-2.6,1.3
			c-0.8,0.3-1.6,0.6-2.3,0.8c-1.1,0.3-2.2,0.6-3.3,0.7l-0.9,0.1h-0.3c0,0,0.1,0,0.3-0.1l0.8-0.2c0.7-0.2,1.8-0.4,3.2-0.8
			c0.7-0.2,1.4-0.5,2.3-0.8c0.9-0.3,1.7-0.8,2.5-1.3c0.9-0.6,1.6-1.4,2-2.4c0.5-1.1,0.4-2.4-0.3-3.3c-0.9-1-2.2-1.5-3.5-1.3
			c-1.4,0.3-2.5,1.3-2.9,2.7c-0.5,1.4-0.3,3,0.5,4.3c0.9,1.4,2.2,2.4,3.8,2.9s3.4,0.7,5.1,0.4c1.8-0.2,3.5-0.7,5.2-1.5
			s3.1-2.1,3.9-3.7c1-1.6,0.9-3.7-0.1-5.3c-0.5-0.8-1.4-1.2-2.3-1.1c-0.9,0.1-1.7,0.6-2.2,1.3c-0.5,0.8-0.7,1.7-0.7,2.6
			c0.1,0.9,0.3,1.8,0.7,2.6c1.6,3.2,5.5,5.1,8.7,4s5.3-4.3,4.7-7.2c-0.1-0.7-0.4-1.4-0.9-1.9c-0.4-0.5-1.1-0.8-1.7-0.9
			c-1.3,0-2.5,0.8-2.9,2.1c-0.4,1.1-0.3,2.4,0.3,3.5c0.5,1,1.1,1.8,2,2.5c1.4,1,3.1,1.7,4.8,1.9c1.1,0.1,2.2,0.2,3.3,0.2h0.9
			L503.7,391.2z"/>
	</g>
</g>
</svg>
